<!-- Generated by IcoMoon.io -->
<svg version="1.1" xmlns="http://www.w3.org/2000/svg" width="32" height="32" viewBox="0 0 32 32">
<path d="M31.561 0.231l-7.38 3.772c-0.087 0.044-0.189 0.044-0.275 0l-7.768-3.971c-0.087-0.044-0.189-0.044-0.275 0l-7.768 3.971c-0.087 0.044-0.189 0.044-0.275 0l-7.38-3.772c-0.219-0.112-0.473 0.071-0.436 0.313l1.63 10.555c0.023 0.147 0.149 0.255 0.298 0.255h28.136c0.149 0 0.275-0.108 0.298-0.255l1.63-10.555c0.037-0.243-0.217-0.425-0.436-0.313zM29.824 13.74h-27.648c-0.278 0-0.503 0.224-0.503 0.501v9.033c0 1.66 0.998 3.159 2.534 3.803l11.676 4.899c0.075 0.031 0.159 0.031 0.234 0l11.676-4.899c1.535-0.644 2.534-2.143 2.534-3.803v-9.033c0-0.277-0.225-0.501-0.503-0.501z"></path>
</svg>
