<!-- Generated by IcoMoon.io -->
<svg version="1.1" xmlns="http://www.w3.org/2000/svg" width="32" height="32" viewBox="0 0 32 32">
<path d="M16 0c-8.837 0-16 7.163-16 16s7.163 16 16 16 16-7.164 16-16c0-8.837-7.163-16-16-16zM18.283 24.938c-0.002 1.256-1.027 2.277-2.283 2.277s-2.281-1.021-2.283-2.277v-1.057c0-1.258 1.023-2.281 2.283-2.281s2.283 1.023 2.283 2.281v1.057zM18.283 16.51c0 1.257-1.023 2.281-2.281 2.281-1.26 0-2.285-1.024-2.285-2.281v-9.443c0-1.258 1.023-2.281 2.283-2.281s2.283 1.023 2.283 2.281v9.443z"></path>
</svg>
