<!-- Generated by IcoMoon.io -->
<svg version="1.1" xmlns="http://www.w3.org/2000/svg" width="32" height="32" viewBox="0 0 32 32">
<path d="M10.792 23.617v-0.002c0-0.5-0.193-0.97-0.547-1.324l-4.383-4.381h14.714c1.032 0 1.871-0.841 1.871-1.873 0-0.496-0.195-0.966-0.549-1.324-0.352-0.352-0.822-0.547-1.322-0.547l-14.714-0.002 4.458-4.456c0.731-0.731 0.729-1.919-0.002-2.65-0.354-0.352-0.824-0.545-1.32-0.545-0.498 0-0.968 0.193-1.324 0.547l-6.754 6.752c-0.593 0.593-0.92 1.384-0.92 2.225s0.328 1.631 0.92 2.224l6.678 6.678c0.731 0.729 1.919 0.729 2.646 0 0.352-0.352 0.547-0.822 0.547-1.322zM32 27.775v-23.549c0-2.33-1.896-4.225-4.227-4.225h-17.987c-1.032 0-1.871 0.839-1.871 1.871s0.839 1.871 1.871 1.871h17.987c0.267 0 0.485 0.216 0.485 0.483v23.549c0 0.267-0.218 0.483-0.485 0.483h-17.987c-1.032 0-1.871 0.839-1.871 1.871s0.839 1.871 1.871 1.871h17.987c2.331 0 4.227-1.896 4.227-4.225z"></path>
</svg>
