<!-- Generated by IcoMoon.io -->
<svg version="1.1" xmlns="http://www.w3.org/2000/svg" width="32" height="32" viewBox="0 0 32 32">
<path d="M10.455 0.251c-0.269-0.456-0.921-0.249-0.921 0.291v30.916c0 0.541 0.652 0.747 0.921 0.291l3.814-6.459c0.051-0.087 0.079-0.188 0.079-0.291v-17.999c0-0.103-0.027-0.204-0.079-0.291l-3.814-6.459zM1.608 2.344c-0.313-0.331-0.858-0.102-0.858 0.361v26.589c0 0.463 0.544 0.692 0.858 0.361l5.142-6.731c0.091-0.096 0.142-0.226 0.142-0.361v-13.127c0-0.135-0.051-0.265-0.142-0.361l-5.142-6.731zM21.545 0.251l-3.814 6.459c-0.051 0.087-0.079 0.188-0.079 0.291v17.999c0 0.103 0.027 0.204 0.079 0.291l3.814 6.459c0.269 0.456 0.921 0.25 0.921-0.291v-30.916c0-0.541-0.652-0.747-0.921-0.291zM30.392 2.344l-5.142 6.731c-0.091 0.097-0.142 0.226-0.142 0.361v13.127c0 0.135 0.051 0.265 0.142 0.361l5.142 6.731c0.313 0.331 0.858 0.102 0.858-0.361v-26.589c0-0.463-0.544-0.693-0.858-0.361z"></path>
</svg>
