<!-- Generated by IcoMoon.io -->
<svg version="1.1" xmlns="http://www.w3.org/2000/svg" width="32" height="32" viewBox="0 0 32 32">
<path d="M27.41 2.002h-22.819c-2.535 0-4.59 2.055-4.59 4.59v18.816c0 2.535 2.055 4.59 4.59 4.59h22.819c2.535 0 4.59-2.055 4.59-4.59v-18.816c0-2.535-2.055-4.59-4.59-4.59zM11.695 23.667c-2.694 0-4.554-1.069-5.837-2.588l2.266-2.159c1.027 1.155 2.097 1.797 3.615 1.797 1.24 0 2.118-0.707 2.118-1.841 0-1.24-1.048-1.924-2.931-1.924h-1.369l-0.512-2.097 3.572-3.593h-5.883v-2.823h10.116v2.481l-3.786 3.614c2.053 0.343 4.021 1.412 4.021 4.214 0 2.844-2.053 4.918-5.39 4.918zM26.142 23.411h-3.251v-11.741l-2.609 0.641-0.684-2.694 4.298-1.283h2.246v15.077z"></path>
</svg>
