<!-- Generated by IcoMoon.io -->
<svg version="1.1" xmlns="http://www.w3.org/2000/svg" width="32" height="32" viewBox="0 0 32 32">
<path d="M28.308 0h-24.615c-2.036 0-3.692 1.656-3.692 3.692v24.615c0 2.036 1.656 3.692 3.692 3.692h24.615c2.036 0 3.692-1.656 3.692-3.692v-24.615c0-2.036-1.656-3.692-3.692-3.692zM26.126 9.725l-10.281 14.546c-0.27 0.433-0.771 0.745-1.324 0.808l-0.186 0.011c-0.517 0-0.978-0.19-1.325-0.536l-6.496-5.804c-0.381-0.378-0.582-0.847-0.582-1.341-0.001-0.49 0.189-0.954 0.537-1.303 0.697-0.699 1.915-0.694 2.607-0.003l4.907 4.319 9.046-12.693c0.509-0.82 1.637-1.074 2.503-0.541l0.001 0.001c0.863 0.537 1.129 1.675 0.593 2.538z"></path>
</svg>
