<!-- Generated by IcoMoon.io -->
<svg version="1.1" xmlns="http://www.w3.org/2000/svg" width="32" height="32" viewBox="0 0 32 32">
<path d="M18.955 16l12.434-12.434c0.394-0.392 0.612-0.917 0.612-1.475s-0.216-1.083-0.612-1.479c-0.788-0.786-2.169-0.79-2.956 0l-12.432 12.432-12.432-12.432c-0.818-0.814-2.142-0.814-2.956 0-0.396 0.396-0.612 0.92-0.612 1.479s0.218 1.083 0.612 1.475l12.434 12.434-12.434 12.432c-0.396 0.396-0.612 0.92-0.612 1.479s0.218 1.083 0.612 1.475c0.792 0.792 2.165 0.792 2.956 0l12.432-12.432 12.432 12.432c0.396 0.396 0.92 0.614 1.477 0.614 0.559 0 1.083-0.218 1.479-0.614 0.394-0.392 0.612-0.917 0.612-1.475s-0.216-1.083-0.612-1.479l-12.434-12.432z"></path>
</svg>
