<!-- Generated by IcoMoon.io -->
<svg version="1.1" xmlns="http://www.w3.org/2000/svg" width="32" height="32" viewBox="0 0 32 32">
<path d="M1.851 9.351h12.755c0.777 2.3 2.927 3.967 5.489 3.967s4.713-1.667 5.489-3.967h4.564c1.023 0 1.851-0.829 1.851-1.851s-0.828-1.851-1.851-1.851h-4.564c-0.776-2.3-2.927-3.967-5.489-3.967s-4.713 1.667-5.489 3.967h-12.755c-1.023 0-1.851 0.829-1.851 1.851s0.829 1.851 1.851 1.851zM30.149 22.649h-12.755c-0.777-2.3-2.927-3.967-5.489-3.967s-4.713 1.667-5.489 3.967h-4.564c-1.023 0-1.851 0.829-1.851 1.851s0.829 1.851 1.851 1.851h4.564c0.776 2.3 2.927 3.967 5.489 3.967s4.713-1.667 5.489-3.967h12.755c1.023 0 1.851-0.828 1.851-1.851s-0.828-1.851-1.851-1.851z"></path>
</svg>
