<!-- Generated by IcoMoon.io -->
<svg version="1.1" xmlns="http://www.w3.org/2000/svg" width="32" height="32" viewBox="0 0 32 32">
<path d="M2.859 20.142v-16.284c0-0.551 0.448-0.998 0.999-0.998h15.645c-0.426-1.667-1.928-2.86-3.726-2.86h-11.919c-2.127 0-3.858 1.731-3.858 3.858v16.284c0 2.127 1.731 3.858 3.858 3.858h0.394v-2.86h-0.394c-0.551 0-0.999-0.447-0.999-0.998zM21.848 29.14h-12.283c-0.551 0-0.999-0.447-0.999-0.998v-15.557c0-0.551 0.448-0.998 0.999-0.998h1.346v-2.86h-1.346c-2.127 0-3.858 1.731-3.858 3.858v15.557c0 2.127 1.731 3.858 3.858 3.858h12.283c2.127 0 3.858-1.731 3.858-3.858h-2.859c0 0.551-0.448 0.998-0.999 0.998zM28.142 4.364h-11.919c-2.127 0-3.858 1.731-3.858 3.858v14.466c0 2.127 1.731 3.858 3.858 3.858h11.919c2.127 0 3.858-1.731 3.858-3.858v-14.466c0-2.127-1.731-3.858-3.858-3.858zM29.141 22.688c0 0.551-0.448 0.998-0.999 0.998h-11.919c-0.551 0-0.999-0.447-0.999-0.998v-14.466c0-0.551 0.448-0.998 0.999-0.998h11.919c0.551 0 0.999 0.447 0.999 0.998v14.466z"></path>
</svg>
