<?xml version="1.0" encoding="utf-8"?>
<!-- Generator: Adobe Illustrator 24.1.0, SVG Export Plug-In . SVG Version: 6.00 Build 0)  -->
<svg version="1.1" id="Layer_1" xmlns="http://www.w3.org/2000/svg" xmlns:xlink="http://www.w3.org/1999/xlink" x="0px" y="0px"
	 viewBox="0 0 16 16" enable-background="new 0 0 16 16" xml:space="preserve">
<path d="M10.98047,8.68595c0.22972,0.34297,0.34351,0.75626,0.34351,1.23985c0,0.52761-0.12452,0.9892-0.37571,1.38477
	c-0.25119,0.39611-0.58718,0.69936-1.00906,0.9103c-0.42295,0.21094-0.88453,0.31667-1.38477,0.31667H4.67602v-9.2334h3.61435
	c0.55391,0,1.04985,0.11862,1.48997,0.35585c0.44012,0.23777,0.78363,0.55444,1.02945,0.95002
	c0.24582,0.39557,0.36927,0.82227,0.36927,1.27957c0,0.46588-0.10198,0.87058-0.30379,1.21355
	c-0.20181,0.34297-0.48306,0.61563-0.84374,0.81744C10.43515,8.08803,10.7529,8.34298,10.98047,8.68595z M6.43113,4.89984v2.13727
	h1.71432c0.38645,0,0.69024-0.0993,0.90922-0.29681c0.22113-0.19805,0.33063-0.45515,0.33063-0.77182
	c0-0.32526-0.10949-0.5845-0.33063-0.77826C8.83569,4.99699,8.5319,4.89984,8.14545,4.89984H6.43113z M9.17383,10.61174
	c0.22865-0.21952,0.34243-0.49701,0.34243-0.83086c0-0.33438-0.11379-0.61134-0.34243-0.8314
	C8.94518,8.72996,8.61993,8.61993,8.19805,8.61993H6.43113v2.32137h1.76692C8.61993,10.9413,8.94518,10.8318,9.17383,10.61174z"/>
</svg>
