<?xml version="1.0" encoding="utf-8"?>
<!-- Generator: Adobe Illustrator 24.1.0, SVG Export Plug-In . SVG Version: 6.00 Build 0)  -->
<svg version="1.1" id="Layer_1" xmlns="http://www.w3.org/2000/svg" xmlns:xlink="http://www.w3.org/1999/xlink" x="0px" y="0px"
	 viewBox="0 0 16 16" enable-background="new 0 0 16 16" xml:space="preserve">
<path d="M5.98047,6.86125C5.79578,6.5875,5.52734,6.36204,5.17529,6.18492C4.82324,6.00834,4.42822,5.91978,3.98804,5.91978
	c-0.55396,0-1.06909,0.13635-1.5437,0.409c-0.47437,0.27271-0.85449,0.66608-1.13989,1.1803
	C1.01782,8.02378,0.875,8.62388,0.875,9.30979c0,0.67737,0.14282,1.27258,0.42944,1.78735
	c0.2854,0.51416,0.66553,0.91028,1.13989,1.18726c0.47461,0.27692,0.98975,0.41541,1.5437,0.41541
	c0.44873,0,0.84595-0.0907,1.19373-0.27209c0.34778-0.18146,0.61401-0.409,0.79871-0.68274v0.79651h1.4104V6.07817h-1.4104V6.86125z
	 M5.53174,10.7606c-0.36072,0.37842-0.81372,0.56732-1.35913,0.56732c-0.34351,0-0.65686-0.08374-0.94238-0.25067
	c-0.28662-0.16693-0.51318-0.40253-0.68066-0.70581c-0.16626-0.30322-0.25-0.65692-0.25-1.06165
	c0-0.40466,0.08374-0.76056,0.25-1.0686C2.71704,7.93363,2.9436,7.69853,3.23022,7.53538
	C3.51575,7.37272,3.8291,7.29167,4.17261,7.29167c0.55396,0,1.00916,0.18896,1.36548,0.56732
	C5.89453,8.23686,6.07275,8.7205,6.07275,9.30979C6.07275,9.89915,5.89233,10.38273,5.53174,10.7606z M13.71448,6.07817v0.78308
	c-0.18469-0.27374-0.453-0.49921-0.80505-0.67633c-0.35217-0.17657-0.74719-0.26514-1.18726-0.26514
	c-0.55396,0-1.06921,0.13635-1.5437,0.409c-0.47449,0.27271-0.85449,0.66608-1.14001,1.1803
	C8.75183,8.02378,8.60913,8.62388,8.60913,9.30979c0,0.67737,0.1427,1.27258,0.42932,1.78735
	c0.28552,0.51416,0.66553,0.91028,1.14001,1.18726c0.47449,0.27692,0.98975,0.41541,1.5437,0.41541
	c0.44873,0,0.84583-0.0907,1.1936-0.27209c0.3479-0.18146,0.61401-0.409,0.79871-0.68274v0.79651H15.125V6.07817H13.71448z
	 M13.26575,10.7606c-0.36072,0.37842-0.8136,0.56732-1.35901,0.56732c-0.34351,0-0.65698-0.08374-0.9425-0.25067
	c-0.28662-0.16693-0.51306-0.40253-0.68054-0.70581c-0.16638-0.30322-0.25012-0.65692-0.25012-1.06165
	c0-0.40466,0.08374-0.76056,0.25012-1.0686c0.16748-0.30756,0.39392-0.54266,0.68054-0.70581
	c0.28552-0.16266,0.599-0.24371,0.9425-0.24371c0.55396,0,1.00903,0.18896,1.36548,0.56732
	c0.35645,0.37787,0.53455,0.86151,0.53455,1.45081C13.80676,9.89915,13.62646,10.38273,13.26575,10.7606z"/>
</svg>
