<?xml version="1.0" encoding="utf-8"?>
<!-- Generator: Adobe Illustrator 24.1.0, SVG Export Plug-In . SVG Version: 6.00 Build 0)  -->
<svg version="1.1" id="Layer_1" xmlns="http://www.w3.org/2000/svg" xmlns:xlink="http://www.w3.org/1999/xlink" x="0px" y="0px"
	 viewBox="0 0 16 16" enable-background="new 0 0 16 16" xml:space="preserve">
<path d="M6.07404,11.00134c0.53601,0.32874,1.17981,0.49286,1.93237,0.49286c0.75244,0,1.39417-0.16412,1.92603-0.49286
	c0.53186-0.32819,0.93506-0.78674,1.21252-1.37463c0.27661-0.58783,0.41479-1.26221,0.41479-2.02313V2.2608h-1.46484v5.36865
	c0,0.73505-0.18677,1.32715-0.55823,1.77673c-0.37256,0.44958-0.88123,0.67438-1.53027,0.67438
	c-0.65759,0-1.17151-0.22479-1.54297-0.67438C6.09088,8.9566,5.90521,8.3645,5.90521,7.62946V2.2608H4.44037v5.34277
	c0,0.76093,0.13818,1.4353,0.41467,2.02313C5.13153,10.2146,5.5379,10.67316,6.07404,11.00134z M3.25311,13.04871v0.69049h9.49377
	v-0.69049H3.25311z"/>
</svg>
