<?xml version="1.0" encoding="utf-8"?>
<!-- Generator: Adobe Illustrator 24.1.0, SVG Export Plug-In . SVG Version: 6.00 Build 0)  -->
<svg version="1.1" id="Layer_1" xmlns="http://www.w3.org/2000/svg" xmlns:xlink="http://www.w3.org/1999/xlink" x="0px" y="0px"
	 viewBox="0 0 16 16" enable-background="new 0 0 16 16" xml:space="preserve">
<path d="M4.03613,3.30414L0,12.53754h1.54248l0.77942-1.79376h4.57727l0.76428,1.79376h1.55652l-4.02344-9.2334H4.03613z
	 M2.87573,9.43787l1.74121-4.03674l1.72827,4.03674H2.87573z M14.58936,6.07422V6.8573
	c-0.18457-0.27374-0.45288-0.49921-0.80493-0.67633c-0.35217-0.17657-0.74719-0.26514-1.18726-0.26514
	c-0.55396,0-1.06934,0.13635-1.5437,0.409c-0.47449,0.27271-0.85449,0.66608-1.14014,1.1803
	c-0.2865,0.51471-0.42932,1.11481-0.42932,1.80072c0,0.67737,0.14282,1.27258,0.42932,1.78735
	c0.28564,0.51416,0.66565,0.91028,1.14014,1.18726c0.47437,0.27692,0.98975,0.41541,1.5437,0.41541
	c0.44861,0,0.84583-0.0907,1.1936-0.27209c0.34778-0.18146,0.61401-0.409,0.79858-0.68274v0.79651H16V6.07422H14.58936z
	 M14.14075,10.75665c-0.36072,0.37842-0.81372,0.56732-1.35901,0.56732c-0.34351,0-0.65698-0.08374-0.9425-0.25067
	c-0.28662-0.16693-0.51306-0.40253-0.68054-0.70581c-0.1665-0.30322-0.25024-0.65692-0.25024-1.06165
	c0-0.40466,0.08374-0.76056,0.25024-1.0686c0.16748-0.30756,0.39392-0.54266,0.68054-0.70581
	c0.28552-0.16266,0.599-0.24371,0.9425-0.24371c0.55396,0,1.00903,0.18896,1.36548,0.56732
	c0.35632,0.37787,0.53455,0.86151,0.53455,1.45081C14.68176,9.8952,14.50146,10.37878,14.14075,10.75665z"/>
</svg>
