<!-- Generated by IcoMoon.io -->
<svg version="1.1" xmlns="http://www.w3.org/2000/svg" width="32" height="32" viewBox="0 0 32 32">
<path d="M31.412 22.243l-2.799-1.497-10.096 5.398c-0.531 0.284-1.113 0.438-1.707 0.53-0.266 0.067-0.538 0.1-0.81 0.1s-0.544-0.034-0.81-0.1c-0.594-0.092-1.176-0.247-1.707-0.53l-10.096-5.398-2.799 1.497c-0.785 0.419-0.785 1.544 0 1.964l13.838 7.399c0.983 0.526 2.164 0.526 3.147 0l13.838-7.399c0.785-0.419 0.785-1.544 0-1.964h0.001zM31.412 15.018l-2.799-1.497-10.096 5.398c-0.531 0.284-1.113 0.438-1.707 0.53-0.266 0.067-0.538 0.1-0.81 0.1s-0.544-0.034-0.809-0.1h-0.001c-0.594-0.092-1.176-0.247-1.707-0.53l-10.096-5.398-2.799 1.497c-0.785 0.419-0.785 1.544 0 1.964l13.838 7.399c0.492 0.263 1.033 0.394 1.574 0.394s1.082-0.131 1.574-0.394l13.838-7.399c0.785-0.419 0.785-1.544 0-1.964zM0.588 9.757l13.838 7.399c0.983 0.526 2.164 0.526 3.147 0l13.838-7.399c0.785-0.42 0.785-1.544 0-1.964l-13.838-7.399c-0.983-0.526-2.164-0.526-3.147 0l-13.838 7.399c-0.785 0.419-0.785 1.544 0 1.964z"></path>
</svg>
