<!-- Generated by IcoMoon.io -->
<svg version="1.1" xmlns="http://www.w3.org/2000/svg" width="32" height="32" viewBox="0 0 32 32">
<path d="M26.498 0h-20.997c-1.933 0-3.5 1.567-3.5 3.5v25c0 1.933 1.567 3.5 3.5 3.5h20.997c1.933 0 3.5-1.567 3.5-3.5v-25c0-1.933-1.567-3.5-3.5-3.5zM15.663 23.243l-7.333-0.002c-0.5 0-0.97-0.195-1.322-0.547-0.354-0.358-0.549-0.828-0.549-1.324 0-1.032 0.839-1.873 1.871-1.873l7.333 0.002c0.5 0 0.97 0.195 1.322 0.547 0.354 0.358 0.549 0.828 0.549 1.324 0 1.032-0.839 1.873-1.871 1.873zM19.667 16.076l-11.336-0.002c-0.5 0-0.97-0.195-1.322-0.547-0.354-0.358-0.549-0.828-0.549-1.324 0-1.032 0.839-1.873 1.871-1.873l11.336 0.002c0.5 0 0.97 0.195 1.322 0.547 0.354 0.358 0.549 0.828 0.549 1.324 0 1.032-0.839 1.873-1.871 1.873zM23.67 8.909l-15.34-0.002c-0.5 0-0.97-0.195-1.322-0.547-0.354-0.358-0.549-0.828-0.549-1.324 0-1.032 0.839-1.873 1.871-1.873l15.34 0.002c0.5 0 0.97 0.195 1.322 0.547 0.354 0.358 0.549 0.828 0.549 1.324 0 1.032-0.839 1.873-1.871 1.873z"></path>
</svg>
