<!-- Generated by IcoMoon.io -->
<svg version="1.1" xmlns="http://www.w3.org/2000/svg" width="32" height="32" viewBox="0 0 32 32">
<path d="M23.617 21.208h-0.002c-0.5 0-0.97 0.193-1.324 0.547l-4.381 4.383v-14.714c0-1.032-0.841-1.871-1.873-1.871-0.496 0-0.966 0.195-1.324 0.549-0.352 0.352-0.547 0.822-0.547 1.322l-0.002 14.714-4.456-4.458c-0.731-0.731-1.919-0.729-2.65 0.002-0.352 0.354-0.545 0.824-0.545 1.32 0 0.498 0.193 0.968 0.547 1.324l6.752 6.754c0.593 0.593 1.384 0.92 2.225 0.92s1.631-0.328 2.224-0.92l6.678-6.678c0.729-0.731 0.729-1.919 0-2.646-0.352-0.352-0.822-0.547-1.322-0.547zM27.775 0h-23.549c-2.33 0-4.225 1.896-4.225 4.227v17.987c0 1.032 0.839 1.871 1.871 1.871s1.871-0.839 1.871-1.871v-17.987c0-0.267 0.216-0.485 0.483-0.485h23.549c0.267 0 0.483 0.218 0.483 0.485v17.987c0 1.032 0.839 1.871 1.871 1.871s1.871-0.839 1.871-1.871v-17.987c0-2.331-1.896-4.227-4.225-4.227z"></path>
</svg>
