<!-- Generated by IcoMoon.io -->
<svg version="1.1" xmlns="http://www.w3.org/2000/svg" width="32" height="32" viewBox="0 0 32 32">
<path d="M31.604 9.717c-0.324-0.447-0.799-0.739-1.343-0.824-0.544-0.097-1.087 0.045-1.534 0.369l-12.728 9.265-12.729-9.265c-0.445-0.324-0.996-0.456-1.532-0.371-0.544 0.087-1.021 0.379-1.345 0.824-0.667 0.919-0.464 2.208 0.453 2.879l13.942 10.144c0.354 0.261 0.773 0.398 1.212 0.398 0.441 0 0.86-0.136 1.214-0.396l13.94-10.146c0.445-0.326 0.737-0.803 0.822-1.347s-0.047-1.087-0.371-1.53z"></path>
</svg>
