<!-- Generated by IcoMoon.io -->
<svg version="1.1" xmlns="http://www.w3.org/2000/svg" width="32" height="32" viewBox="0 0 32 32">
<path d="M30.293 27.199l-3.094 3.094c-0.391 0.391-0.391 1.023 0 1.414 0.195 0.195 0.451 0.293 0.707 0.293s0.512-0.098 0.707-0.293l3.094-3.094c0.391-0.391 0.391-1.023 0-1.414s-1.023-0.391-1.414 0zM31.707 20.918c-0.391-0.391-1.023-0.391-1.414 0l-9.375 9.375c-0.391 0.391-0.391 1.023 0 1.414 0.195 0.195 0.451 0.293 0.707 0.293s0.512-0.098 0.707-0.293l9.375-9.375c0.391-0.391 0.391-1.023 0-1.414z"></path>
</svg>
