<!-- Generated by IcoMoon.io -->
<svg version="1.1" xmlns="http://www.w3.org/2000/svg" width="32" height="32" viewBox="0 0 32 32">
<path d="M9.36 21.477c-0.046 0.317 0.061 0.637 0.288 0.864s0.547 0.333 0.864 0.288l5.461-0.78-5.833-5.832-0.78 5.461zM28.142 0h-24.284c-2.127 0-3.858 1.731-3.858 3.858v24.284c0 2.127 1.731 3.858 3.858 3.858h24.284c2.127 0 3.858-1.731 3.858-3.858v-24.284c0-2.127-1.731-3.858-3.858-3.858zM29.141 28.142c0 0.551-0.448 0.998-0.999 0.998h-24.284c-0.551 0-0.999-0.447-0.999-0.998v-24.284c0-0.551 0.448-0.998 0.999-0.998h18.981l-10.494 10.485 6.3 6.3 10.497-10.488v18.985z"></path>
</svg>
