<!-- Generated by IcoMoon.io -->
<svg version="1.1" xmlns="http://www.w3.org/2000/svg" width="32" height="32" viewBox="0 0 32 32">
<path d="M31.084 14.328l-4.6-3.684 4.887-3.193c0.578-0.379 0.74-1.152 0.363-1.73-0.379-0.58-1.153-0.74-1.73-0.363l-5.574 3.641-1.898-1.52c-4.035-2.359-9.028-2.359-13.063 0l-8.552 6.849c-1.221 0.714-1.221 2.479 0 3.193l4.647 3.804-4.935 3.224c-0.578 0.379-0.74 1.152-0.363 1.73 0.24 0.367 0.64 0.566 1.048 0.566 0.234 0 0.472-0.066 0.683-0.203l5.597-3.657 1.875 1.535c4.035 2.359 9.028 2.359 13.063 0l8.552-7c1.221-0.714 1.221-2.479 0-3.193zM9.797 18.468c-1.363-3.426 0.309-7.308 3.734-8.671 2.594-1.032 5.444-0.319 7.27 1.572l-1.739 1.136c-1.276-1.116-3.104-1.511-4.787-0.841-2.287 0.91-3.433 3.424-2.703 5.734l-1.74 1.137c-0.010-0.024-0.025-0.043-0.035-0.068zM18.468 22.203c-2.594 1.032-5.444 0.319-7.27-1.572l1.739-1.136c1.276 1.115 3.104 1.51 4.787 0.841 2.287-0.91 3.433-3.424 2.703-5.734l1.74-1.137c0.010 0.024 0.025 0.043 0.035 0.067 1.363 3.426-0.308 7.308-3.734 8.671z"></path>
</svg>
