<!-- Generated by IcoMoon.io -->
<svg version="1.1" xmlns="http://www.w3.org/2000/svg" width="32" height="32" viewBox="0 0 32 32">
<path d="M31.084 14.328l-8.552-6.849c-4.035-2.359-9.028-2.359-13.063 0l-8.552 6.849c-1.221 0.714-1.221 2.479 0 3.193l8.552 7c4.035 2.359 9.028 2.359 13.063 0l8.552-7c1.221-0.714 1.221-2.479 0-3.193zM18.468 22.203c-3.426 1.363-7.308-0.309-8.671-3.734s0.309-7.308 3.734-8.671c3.426-1.363 7.308 0.308 8.671 3.734s-0.308 7.308-3.734 8.671zM14.275 11.665c-2.394 0.953-3.562 3.666-2.61 6.060s3.666 3.562 6.060 2.61c2.394-0.953 3.562-3.666 2.61-6.060s-3.666-3.562-6.060-2.61z"></path>
</svg>
