<!-- Generated by IcoMoon.io -->
<svg version="1.1" xmlns="http://www.w3.org/2000/svg" width="32" height="32" viewBox="0 0 32 32">
<path d="M3.095 22.205c-0.166-0.112-0.265-0.299-0.265-0.499v-13.577c0-0.366-0.324-0.647-0.686-0.596l-1.626 0.23c-0.297 0.042-0.517 0.296-0.517 0.595v21.137c0 0.364 0.32 0.644 0.681 0.596l9.923-1.57c0.54-0.085 0.695-0.788 0.242-1.093l-7.751-5.223zM6.593 2.026c-0.397-0.298-0.963-0.016-0.963 0.481v17.922c0 0.202 0.101 0.39 0.269 0.501l7.874 5.23c0.4 0.266 0.935-0.021 0.935-0.501v-17.226c0-0.189-0.089-0.367-0.24-0.481l-7.874-5.926zM31.482 7.762l-1.626-0.23c-0.362-0.051-0.686 0.23-0.686 0.596v13.577c0 0.2-0.1 0.387-0.265 0.499l-7.751 5.223c-0.453 0.305-0.297 1.008 0.242 1.093l9.923 1.57c0.361 0.048 0.681-0.233 0.681-0.596v-21.136c0-0.3-0.221-0.554-0.518-0.596zM26.371 20.428v-17.922c0-0.496-0.567-0.779-0.963-0.481l-7.874 5.926c-0.151 0.114-0.24 0.292-0.24 0.481v17.226c0 0.48 0.535 0.767 0.935 0.501l7.874-5.23c0.168-0.111 0.269-0.3 0.269-0.501z"></path>
</svg>
