<!-- Generated by IcoMoon.io -->
<svg version="1.1" xmlns="http://www.w3.org/2000/svg" width="32" height="32" viewBox="0 0 32 32">
<path d="M24.809 8.809c-2.946 0-5.477 1.784-6.587 4.325-1.432-0.467-3.013-0.467-4.445 0-1.11-2.541-3.641-4.325-6.587-4.325-3.965 0-7.191 3.225-7.191 7.191s3.225 7.191 7.191 7.191c3.952 0 7.165-3.205 7.187-7.151 1.031-0.45 2.214-0.449 3.246 0.001 0.022 3.946 3.235 7.15 7.186 7.15 3.965 0 7.191-3.225 7.191-7.191s-3.225-7.191-7.191-7.191zM7.191 19.639c-2.007 0-3.639-1.633-3.639-3.639s1.633-3.639 3.639-3.639 3.639 1.633 3.639 3.639-1.633 3.639-3.639 3.639zM24.809 19.639c-2.007 0-3.639-1.633-3.639-3.639s1.633-3.639 3.639-3.639 3.639 1.633 3.639 3.639-1.633 3.639-3.639 3.639z"></path>
</svg>
