<!-- Generated by IcoMoon.io -->
<svg version="1.1" xmlns="http://www.w3.org/2000/svg" width="32" height="32" viewBox="0 0 32 32">
<path d="M16 0c-8.823 0-16 7.177-16 16s7.177 16 16 16 16-7.177 16-16-7.177-16-16-16zM21.991 4.558c0.335-0.28 0.812-0.312 1.179-0.081 3.269 2.038 5.528 5.37 6.199 9.142 0.051 0.289-0.028 0.585-0.219 0.813-0.194 0.23-0.477 0.363-0.776 0.363h-3.948c-0.521 0-0.956-0.411-0.989-0.935-0.192-3.005-0.79-5.832-1.731-8.175-0.163-0.405-0.051-0.847 0.285-1.128zM10.011 27.442c-0.187 0.156-0.417 0.235-0.648 0.235-0.184 0-0.368-0.050-0.532-0.152-3.27-2.042-5.531-5.374-6.2-9.145-0.051-0.289 0.028-0.585 0.219-0.813 0.194-0.23 0.477-0.363 0.776-0.363h3.949c0.523 0 0.957 0.411 0.988 0.938 0.194 3.004 0.792 5.831 1.731 8.173 0.163 0.403 0.051 0.845-0.282 1.126zM10.293 5.685c-0.94 2.344-1.538 5.171-1.73 8.175-0.034 0.524-0.468 0.935-0.989 0.935h-3.949c-0.298 0-0.581-0.132-0.774-0.363-0.191-0.227-0.27-0.524-0.219-0.813 0.671-3.771 2.929-7.105 6.199-9.144 0.37-0.231 0.843-0.199 1.179 0.082 0.335 0.281 0.446 0.723 0.284 1.128zM16 29.591c-1.755 0-4.511-4.301-5.013-11.306-0.020-0.277 0.078-0.554 0.27-0.759 0.19-0.204 0.457-0.321 0.731-0.321h8.023c0.276 0 0.542 0.117 0.731 0.321 0.192 0.206 0.29 0.483 0.27 0.761-0.493 6.901-3.298 11.305-5.012 11.305zM20.742 14.474c-0.19 0.204-0.456 0.321-0.731 0.321h-8.021c-0.276 0-0.543-0.117-0.733-0.321-0.192-0.207-0.29-0.484-0.27-0.761 0.503-7.004 3.258-11.305 5.013-11.305 1.712 0 4.517 4.405 5.012 11.306 0.020 0.277-0.078 0.554-0.27 0.759zM23.168 27.526c-0.164 0.102-0.348 0.153-0.532 0.153-0.23 0-0.46-0.081-0.646-0.237-0.335-0.281-0.446-0.723-0.284-1.126 0.941-2.341 1.539-5.169 1.731-8.176 0.034-0.524 0.468-0.935 0.989-0.935h3.949c0.298 0 0.581 0.132 0.773 0.363 0.192 0.229 0.271 0.524 0.22 0.813-0.669 3.771-2.93 7.105-6.2 9.145z"></path>
</svg>
