<!-- Generated by IcoMoon.io -->
<svg version="1.1" xmlns="http://www.w3.org/2000/svg" width="32" height="32" viewBox="0 0 32 32">
<path d="M5.665 0h-3.665c-1.105 0-2 0.895-2 2v28c0 1.105 0.895 2 2 2h3.665c1.105 0 2-0.895 2-2v-28c0-1.105-0.895-2-2-2zM17.833 12.010h-3.665c-1.105 0-2 0.896-2 2v15.99c0 1.105 0.895 2 2 2h3.665c1.105 0 2-0.895 2-2v-15.99c0-1.104-0.895-2-2-2zM30 6.005h-3.665c-1.105 0-2 0.895-2 2v21.995c0 1.105 0.895 2 2 2h3.665c1.105 0 2-0.895 2-2v-21.995c0-1.105-0.895-2-2-2z"></path>
</svg>
