<!-- Generated by IcoMoon.io -->
<svg version="1.1" xmlns="http://www.w3.org/2000/svg" width="32" height="32" viewBox="0 0 32 32">
<path d="M7.669 9.289c0-0.867 0.109-1.708 0.296-2.519-0.573 0.064-1.129 0.177-1.663 0.344-0.561 0.175-1.099 0.403-1.608 0.679-0.762 0.414-1.458 0.936-2.068 1.544-0.406 0.406-0.773 0.85-1.095 1.328-0.967 1.432-1.532 3.158-1.532 5.015s0.565 3.584 1.532 5.015c0.322 0.478 0.689 0.921 1.095 1.328 0.609 0.609 1.304 1.13 2.068 1.544 0.509 0.277 1.047 0.505 1.608 0.679 0.842 0.262 1.738 0.403 2.668 0.403s1.825-0.142 2.668-0.403c0.098-0.031 0.192-0.072 0.289-0.106-0.061-0.47-0.102-0.944-0.102-1.43 0-1.458 0.288-2.848 0.798-4.128-2.985-2.015-4.952-5.43-4.952-9.294l-0.001 0.001zM17.519 12.966c0.646-0.367 1.329-0.672 2.046-0.906 1.093-0.357 2.256-0.555 3.467-0.555 1.511 0 2.951 0.304 4.267 0.849 0.262-0.718 0.439-1.477 0.512-2.265 0.024-0.263 0.037-0.529 0.037-0.799 0-3.096-1.569-5.827-3.955-7.438-0.715-0.483-1.505-0.866-2.348-1.128s-1.738-0.403-2.668-0.403-1.825 0.142-2.668 0.403c-0.561 0.175-1.099 0.403-1.608 0.679-0.762 0.414-1.458 0.936-2.068 1.544-0.406 0.406-0.773 0.85-1.095 1.328-0.091 0.136-0.171 0.28-0.256 0.422-0.393 0.657-0.706 1.367-0.922 2.119-0.226 0.787-0.354 1.615-0.354 2.474 0 1.857 0.565 3.584 1.532 5.015 0.322 0.478 0.689 0.921 1.095 1.328 0.347 0.347 0.728 0.659 1.129 0.946 0.978-1.489 2.302-2.73 3.856-3.613h0.001zM14.078 23.049c0.031 0.825 0.165 1.624 0.403 2.378 0.262 0.824 0.637 1.598 1.111 2.3 0.322 0.478 0.689 0.921 1.095 1.328 0.609 0.609 1.304 1.13 2.068 1.544 0.509 0.277 1.047 0.505 1.608 0.679 0.842 0.262 1.738 0.403 2.668 0.403s1.825-0.142 2.668-0.403 1.632-0.645 2.348-1.128c2.386-1.612 3.955-4.342 3.955-7.438 0-3.007-1.485-5.662-3.756-7.29-0.067-0.048-0.13-0.102-0.199-0.149-0.549-0.37-1.144-0.674-1.77-0.918-0.191-0.074-0.381-0.15-0.577-0.211-0.842-0.262-1.738-0.403-2.668-0.403s-1.825 0.142-2.668 0.403c-0.098 0.031-0.192 0.072-0.289 0.105-0.456 0.16-0.901 0.346-1.319 0.574-0.289 0.157-0.565 0.333-0.833 0.519-0.441 0.306-0.856 0.647-1.234 1.025-0.391 0.391-0.743 0.818-1.056 1.276-0.013 0.018-0.026 0.034-0.039 0.051-0.406 0.601-0.731 1.258-0.983 1.951-0.349 0.958-0.549 1.986-0.549 3.064 0 0.114 0.013 0.224 0.017 0.337v0.002z"></path>
</svg>
