<!-- Generated by IcoMoon.io -->
<svg version="1.1" xmlns="http://www.w3.org/2000/svg" width="32" height="32" viewBox="0 0 32 32">
<path d="M16 0c-8.837 0-16 7.163-16 16s7.163 16 16 16c8.837 0 16-7.164 16-16s-7.163-16-16-16zM17.639 25.603c-0.23 0.376-0.53 0.673-0.901 0.898-0.372 0.222-0.777 0.333-1.217 0.333-0.688 0-1.273-0.241-1.758-0.725s-0.724-1.068-0.717-1.748c-0.007-0.673 0.233-1.25 0.717-1.732 0.484-0.48 1.070-0.72 1.758-0.72 0.652 0 1.226 0.241 1.721 0.72 0.495 0.482 0.745 1.058 0.752 1.732-0.007 0.454-0.125 0.867-0.356 1.243zM22.545 13.016c-0.265 0.621-0.633 1.172-1.108 1.649-0.474 0.477-1.033 0.909-1.68 1.295-0.543 0.324-0.989 0.659-1.335 1.009-0.347 0.352-0.606 0.758-0.774 1.217-0.169 0.461-0.256 1.028-0.263 1.701v0.352h-3.906v-0.352c0.007-1.202 0.114-2.159 0.325-2.875 0.209-0.716 0.516-1.292 0.922-1.732 0.405-0.439 0.893-0.838 1.463-1.195 0.426-0.277 0.808-0.56 1.145-0.858 0.337-0.295 0.605-0.624 0.804-0.983 0.198-0.361 0.299-0.765 0.299-1.212 0-0.475-0.113-0.89-0.34-1.247s-0.532-0.633-0.913-0.824c-0.381-0.191-0.802-0.288-1.263-0.288-0.446 0-0.869 0.097-1.267 0.293-0.399 0.196-0.725 0.484-0.979 0.867-0.255 0.38-0.392 0.853-0.412 1.417h-4.206c0.034-1.375 0.364-2.511 0.99-3.409 0.625-0.895 1.453-1.566 2.484-2.008 1.031-0.444 2.167-0.666 3.412-0.666 1.367 0 2.576 0.224 3.628 0.676 1.051 0.449 1.876 1.101 2.473 1.954s0.896 1.88 0.896 3.083c0 0.803-0.132 1.517-0.397 2.138z"></path>
</svg>
