<!-- Generated by IcoMoon.io -->
<svg version="1.1" xmlns="http://www.w3.org/2000/svg" width="32" height="32" viewBox="0 0 32 32">
<path d="M11.686 22.218c-0.307-0.306-0.803-0.306-1.109 0l-5.519 5.507h9.727l0.654-0.651c0.307-0.307 0.307-0.805 0-1.111l-3.752-3.745zM13.157 29.352h-11.864c-0.728 0-1.324 0.596-1.324 1.324s0.596 1.324 1.324 1.324h11.864c0.728 0 1.324-0.596 1.324-1.324s-0.596-1.324-1.324-1.324zM15.702 9.415v0zM15.7 9.418l-0.015 0.015 0.006 0.006 0.008-0.021zM25.135 0s-7.001 6.988-8.94 8.925c-0.329 0.328-0.577 0.707-0.748 1.139-0.841 2.136-3.473 8.818-3.473 8.818-0.115 0.291-0.046 0.622 0.176 0.843l5.788 5.776c0.221 0.22 0.551 0.289 0.841 0.175l8.811-3.456c0.43-0.169 0.821-0.424 1.148-0.749l3.231-3.212v-18.26h-6.834z"></path>
</svg>
