<!-- Generated by IcoMoon.io -->
<svg version="1.1" xmlns="http://www.w3.org/2000/svg" width="32" height="32" viewBox="0 0 32 32">
<path d="M30.324 10.575l-11.221-9.443c-1.794-1.509-4.413-1.509-6.206 0l-11.222 9.444c-1.062 0.894-1.675 2.211-1.675 3.598v16.371c0 0.803 0.651 1.455 1.455 1.455h8.727c0.803 0 1.455-0.651 1.455-1.455v-10.555c0-0.803 0.651-1.455 1.455-1.455h5.818c0.803 0 1.455 0.651 1.455 1.455v10.555c0 0.803 0.651 1.455 1.455 1.455h8.727c0.803 0 1.455-0.651 1.455-1.455v-16.37c0-1.388-0.613-2.706-1.676-3.6z"></path>
</svg>
