<!-- Generated by IcoMoon.io -->
<svg version="1.1" xmlns="http://www.w3.org/2000/svg" width="32" height="32" viewBox="0 0 32 32">
<path d="M31.288 10.375l-1.944-0.994v-2.094c0-1.205-0.976-2.181-2.181-2.181h-6.179l-4.507-2.304c-0.299-0.153-0.653-0.153-0.953 0l-4.507 2.304h-6.18c-1.205 0-2.181 0.977-2.181 2.181v2.094l-1.944 0.994c-0.437 0.224-0.712 0.673-0.712 1.164v15.773c0 1.105 0.895 2 2 2h28c1.105 0 2-0.895 2-2v-15.773c0-0.491-0.275-0.941-0.712-1.164zM4.656 7.287c0-0.1 0.081-0.181 0.181-0.181h22.325c0.1 0 0.181 0.081 0.181 0.181v6.135l-10.888 5.567c-0.286 0.146-0.625 0.146-0.911 0l-10.888-5.568v-6.135z"></path>
</svg>
