<?xml version="1.0" encoding="UTF-8"?>
<svg id="Layer_1" xmlns="http://www.w3.org/2000/svg" version="1.1" viewBox="0 0 484 61">
  <!-- Generator: Adobe Illustrator 29.2.1, SVG Export Plug-In . SVG Version: 2.1.0 Build 116)  -->
  <path d="M135.260038,47.4451194h6.0345651V13.1220857h-6.0345651v34.3230337ZM172.3756774,36.8556913l-18.3860242-23.7336056h-5.5854957v34.3230337h5.9291148v-24.4207631l18.9234135,24.4207631h5.0480924V13.1220857h-5.9291008v23.7336056ZM185.5634092,47.4451194h6.0347477v-13.9723115h17.3110349v-5.4885106h-17.3110349v-9.3648848h19.5140194v-5.4885115h-25.5487671v34.3230539-.0088355ZM217.4818796,47.4451194h6.0347477V13.1220857h-6.0347477v34.3230337ZM254.1044581,36.8556913l-18.3858276-23.7336056h-5.5948753v34.3230337h5.929845v-24.4207631l18.9232169,24.4207631h5.048303V13.1220857h-5.929845v23.7336056h.009183ZM267.1420181,47.4451194h6.0347617V13.1220857h-6.0347617v34.3230337ZM279.2998614,18.7163292h10.8898v28.7287902h6.0789076v-28.7376064h10.8879466v-5.594225h-27.8474431v5.594225l-.0092111.0088162ZM326.2214796,28.3279042l-9.6125456-15.1970031h-7.107715l13.6283343,20.7911553v13.5318986h6.0789076v-13.6817089l13.6283624-20.641345h-6.9163318l-9.7082231,15.1970031h.0092111ZM352.8450252,13.130901h-3.8759091v34.3230539h23.1948525v-3.5768642h-19.3189434V13.1220857v.0088153ZM392.7969546,12.54064c-10.4480882,0-17.5576566,8.290115-17.5576566,17.7959027,0,9.5056034,7.0120374,17.6988,17.4527399,17.6988,10.4388771,0,17.5484455-8.2900044,17.5484455-17.7957904s-7.0120093-17.6989123-17.4527399-17.6989123h.0092111ZM392.7969546,44.4586646c-7.8402224,0-13.5326287-6.3695208-13.5326287-14.2191122s5.5948753-14.1221218,13.4350696-14.1221218c7.8420478,0,13.5326568,6.3783563,13.5326568,14.2191122,0,7.8405734-5.5856923,14.1221218-13.4350977,14.1221218ZM433.3930154,12.54064c-10.4480882,0-17.5576566,8.290115-17.5576566,17.7959027,0,9.5056034,7.0120374,17.6988,17.4509146,17.6988,10.4407306,0,17.5576286-8.2900044,17.5576286-17.7957904s-7.0120093-17.6989123-17.4508865-17.6989123ZM433.3930154,44.4586646c-7.8420478,0-13.5326287-6.3695208-13.5326287-14.2191122s5.5856642-14.1221218,13.4350696-14.1221218c7.8494335,0,13.5326568,6.3783563,13.5326568,14.2191122,0,7.8405734-5.5856923,14.1221218-13.4350977,14.1221218ZM469.8205179,13.130901h-12.8443233v34.3230539h3.8759372v-12.1134833h8.3352912c7.302805,0,13.4792436-3.8234824,13.4792436-11.2766453,0-6.8187499-5.10166-10.9329253-12.8461487-10.9329253ZM469.3272745,31.8077779h-8.4825004v-15.1000873h8.6775904c5.5415464,0,9.2149797,2.5460244,9.2149797,7.505946,0,4.5635142-3.7268465,7.6027908-9.4174274,7.6027908l.0073577-.0086495Z" fill="#fff"/>
  <path d="M109.0463303,24.5826425L87.7178498,3.2540654c-2.9248065-2.9248563-7.6909492-2.9336664-10.6334196-.0176129l-36.6928904,36.4284606c-2.7926601,2.5813769-7.2856851,5.1625712-11.1091658,5.1625712-4.1054338,0-8.0345542-1.7530023-10.7831895-4.8189626-2.7838983-3.1009302-4.05252-7.1270428-3.5944018-11.3206315.7488314-6.7571138,6.210896-12.1045934,12.9945128-12.7300797.4669159-.0440599.9338301-.061673,1.3919123-.061673,3.682504,0,7.1270393,1.3479068,9.8405626,3.8675388l6.4574931,6.4751624c.6167263.6167263,1.6210455.62556,2.2466038,0l7.2856851-7.2857027c.6167263-.6166894.6167263-1.6209894,0-2.246495l-4.3520502-4.3520493-2.1231104-2.1583936-.1763133-.1762019c-5.8321174-5.4708984-13.7696813-8.2019305-21.7954-7.4795256C13.5392619,3.7386121,2.9586849,14.1165585,1.5050668,27.2166567c-.8809795,7.9377464,1.6562432,15.8841422,6.9509266,21.7955825,5.2946965,5.9112578,12.8888168,9.3031592,20.8175469,9.3031592,10.1225122,0,18.165902-6.7836168,20.3860028-8.8627427l31.5917886-31.36288c.6167298-.6166894,1.6210491-.6166894,2.2377718,0l11.2852948,11.2853299c.6167298.6167263.6167298,1.6210455,0,2.2466038l-11.2676238,11.2676273c-.6167298.6167263-1.6210491.6167263-2.2466038,0l-8.3779768-8.3781628c-.6167298-.6165402-1.6210491-.6165402-2.2466038,0l-7.2856887,7.2858712c-.6167228.6165402-.6167228,1.6208595,0,2.2464213l13.6991938,13.6991903c1.4712352,1.4712352,3.4005474,2.2024368,5.330049,2.2024368,1.9293192,0,3.8586313-.7312016,5.3298665-2.2024368l21.3196556-21.3196486c3.9556217-3.9556217,3.673665-8.1755308,0-11.8403656h.017664Z" fill="#24b2ee"/>
</svg>