<!-- Generated by IcoMoon.io -->
<svg version="1.1" xmlns="http://www.w3.org/2000/svg" width="32" height="32" viewBox="0 0 32 32">
<path d="M8.957 8.94c2.725-2.724 6.352-4.225 10.213-4.225 3.359 0 6.538 1.138 9.103 3.228v-4.259c0-2.029-1.651-3.68-3.68-3.68h-20.911c-2.030 0-3.68 1.651-3.68 3.68v20.911c0 2.030 1.651 3.68 3.68 3.68h4.294c-4.626-5.667-4.299-14.054 0.983-19.335zM31.711 29.531c-0.001 0-0.001-0.001-0.001-0.001l-3.352-3.402c3.457-4.53 3.053-11.098-1.004-15.153-2.175-2.176-5.073-3.375-8.159-3.375s-5.984 1.198-8.161 3.375c-2.176 2.176-3.375 5.075-3.375 8.16 0 3.087 1.199 5.985 3.375 8.16 2.177 2.176 5.075 3.376 8.161 3.376 2.524 0 4.988-0.837 6.989-2.366l3.337 3.388c0.19 0.196 0.445 0.304 0.718 0.304 0.269 0 0.522-0.105 0.707-0.294l0.76-0.76c0.388-0.388 0.39-1.022 0.004-1.413zM25.179 25.119c-3.299 3.298-8.667 3.3-11.968 0-1.595-1.596-2.474-3.721-2.474-5.984 0-2.264 0.879-4.389 2.474-5.984 1.594-1.595 3.719-2.474 5.984-2.474s4.389 0.879 5.984 2.474c3.298 3.299 3.298 8.668 0 11.968z"></path>
</svg>
