<!-- Generated by IcoMoon.io -->
<svg version="1.1" xmlns="http://www.w3.org/2000/svg" width="32" height="32" viewBox="0 0 32 32">
<path d="M27.873 22.165c-4.289 0-7.777-2.765-7.777-6.165s3.488-6.165 7.777-6.165c0.845 0 1.53-0.685 1.53-1.53s-0.685-1.53-1.53-1.53c-1.128 0-2.195 0.189-3.218 0.462 0.346-1.137 0.568-2.344 0.568-3.619 0-0.845-0.685-1.53-1.53-1.53s-1.53 0.685-1.53 1.53c0 4.289-2.765 7.777-6.163 7.777-3.4 0-6.165-3.488-6.165-7.777 0-0.845-0.685-1.53-1.53-1.53s-1.53 0.685-1.53 1.53c0 1.275 0.222 2.482 0.568 3.619-1.023-0.273-2.089-0.462-3.216-0.462-0.845 0-1.53 0.685-1.53 1.53s0.685 1.53 1.53 1.53c4.287 0 7.775 2.765 7.775 6.165s-3.488 6.165-7.775 6.165c-0.845 0-1.53 0.685-1.53 1.53s0.685 1.53 1.53 1.53c1.127 0 2.193-0.189 3.216-0.462-0.346 1.137-0.568 2.344-0.568 3.619 0 0.845 0.685 1.53 1.53 1.53s1.53-0.685 1.53-1.53c0-4.289 2.765-7.777 6.165-7.777 3.398 0 6.163 3.488 6.163 7.777 0 0.845 0.685 1.53 1.53 1.53s1.53-0.685 1.53-1.53c0-1.275-0.223-2.482-0.568-3.619 1.023 0.273 2.090 0.462 3.218 0.462 0.845 0 1.53-0.685 1.53-1.53s-0.685-1.53-1.53-1.53zM17.238 17.693c-0.409-0.065-0.813-0.147-1.237-0.147s-0.83 0.082-1.239 0.147c0.121-0.55 0.201-1.113 0.201-1.693s-0.080-1.143-0.201-1.693c0.409 0.066 0.814 0.147 1.239 0.147s0.828-0.082 1.237-0.147c-0.121 0.55-0.201 1.113-0.201 1.693s0.080 1.142 0.201 1.693zM8.543 17.53c0.845 0 1.53-0.685 1.53-1.53s-0.685-1.53-1.53-1.53c-3.273 0-5.508-2.773-5.566-2.845-0.514-0.667-1.474-0.791-2.141-0.277-0.669 0.516-0.795 1.476-0.281 2.145 0.073 0.095 1.128 1.403 2.904 2.506-1.776 1.103-2.831 2.411-2.904 2.506-0.514 0.669-0.388 1.629 0.281 2.145 0.277 0.213 0.606 0.317 0.93 0.317 0.46 0 0.914-0.205 1.215-0.598 0.022-0.028 2.275-2.841 5.562-2.841zM28.541 16c1.776-1.103 2.831-2.411 2.904-2.506 0.514-0.669 0.388-1.629-0.281-2.145-0.669-0.514-1.631-0.388-2.145 0.281-0.022 0.028-2.275 2.841-5.562 2.841-0.845 0-1.53 0.685-1.53 1.53s0.685 1.53 1.53 1.53c3.273 0 5.508 2.773 5.566 2.845 0.301 0.39 0.753 0.594 1.211 0.594 0.325 0 0.653-0.104 0.93-0.317 0.669-0.516 0.795-1.476 0.281-2.145-0.073-0.095-1.128-1.403-2.904-2.506zM14.471 8.305c0 0.845 0.685 1.53 1.53 1.53s1.53-0.685 1.53-1.53c0-3.297 2.817-5.544 2.845-5.568 0.665-0.516 0.789-1.472 0.275-2.139-0.516-0.669-1.476-0.797-2.145-0.281-0.095 0.073-1.402 1.128-2.504 2.904-1.103-1.776-2.411-2.831-2.506-2.904-0.667-0.514-1.623-0.39-2.137 0.277-0.518 0.665-0.396 1.625 0.267 2.145 0.028 0.022 2.847 2.269 2.847 5.566zM17.531 23.695c0-0.845-0.685-1.53-1.53-1.53s-1.53 0.685-1.53 1.53c0 3.273-2.777 5.512-2.845 5.566-0.667 0.516-0.791 1.474-0.277 2.141 0.303 0.392 0.755 0.598 1.215 0.598 0.325 0 0.653-0.104 0.93-0.317 0.095-0.073 1.402-1.128 2.506-2.904 1.103 1.776 2.409 2.831 2.504 2.904 0.277 0.213 0.604 0.317 0.928 0.317 0.456 0 0.908-0.205 1.209-0.594 0.516-0.665 0.396-1.625-0.267-2.143-0.028-0.024-2.845-2.271-2.845-5.568z"></path>
</svg>
