<!-- Generated by IcoMoon.io -->
<svg version="1.1" xmlns="http://www.w3.org/2000/svg" width="32" height="32" viewBox="0 0 32 32">
<path d="M11.95 0h-9.95c-1.105 0-2 0.895-2 2v9.95c0 1.105 0.895 2 2 2h9.95c1.105 0 2-0.896 2-2v-9.95c0-1.105-0.895-2-2-2zM29.895 0h-9.739c-1.163 0-2.105 0.942-2.105 2.105v9.739c0 1.163 0.942 2.105 2.105 2.105h9.739c1.163 0 2.105-0.943 2.105-2.105v-9.739c0-1.163-0.942-2.105-2.105-2.105zM29.278 9.944c0 0.709-0.575 1.284-1.283 1.284h-5.938c-0.709 0-1.284-0.575-1.284-1.284v-5.938c0-0.709 0.575-1.283 1.284-1.283h5.938c0.709 0 1.283 0.575 1.283 1.283v5.938zM30 18.050h-9.95c-1.105 0-2 0.895-2 2v9.95c0 1.105 0.895 2 2 2h9.95c1.105 0 2-0.895 2-2v-9.95c0-1.105-0.895-2-2-2zM11.845 18.050h-9.739c-1.163 0-2.105 0.942-2.105 2.105v9.739c0 1.163 0.943 2.105 2.105 2.105h9.739c1.163 0 2.105-0.942 2.105-2.105v-9.739c0-1.163-0.943-2.105-2.105-2.105zM11.227 27.994c0 0.709-0.575 1.283-1.283 1.283h-5.938c-0.709 0-1.283-0.575-1.283-1.283v-5.938c0-0.709 0.575-1.283 1.283-1.283h5.938c0.709 0 1.283 0.575 1.283 1.283v5.938z"></path>
</svg>
