<!-- Generated by IcoMoon.io -->
<svg version="1.1" xmlns="http://www.w3.org/2000/svg" width="32" height="32" viewBox="0 0 32 32">
<path d="M13.474 16.001l9.265-12.726c0.324-0.445 0.456-0.99 0.369-1.534-0.085-0.544-0.379-1.021-0.822-1.343-0.445-0.324-0.996-0.46-1.532-0.371-0.544 0.085-1.021 0.377-1.346 0.822l-10.147 13.942c-0.258 0.354-0.394 0.773-0.394 1.21 0 0.439 0.136 0.858 0.394 1.214l10.147 13.939c0.403 0.553 1.032 0.847 1.67 0.847 0.419 0 0.843-0.129 1.208-0.394 0.443-0.324 0.737-0.801 0.822-1.345 0.087-0.544-0.045-1.089-0.369-1.534l-9.265-12.726z"></path>
</svg>
