<!-- Generated by IcoMoon.io -->
<svg version="1.1" xmlns="http://www.w3.org/2000/svg" width="32" height="32" viewBox="0 0 32 32">
<path d="M28.774 0h-25.548c-1.782 0-3.226 1.449-3.226 3.237v25.905c0 1.788 1.444 3.237 3.226 3.237h25.548c1.782 0 3.226-1.449 3.226-3.237v-25.905c0-1.788-1.444-3.237-3.226-3.237zM10.268 25.619h-4.305v-13.85h4.305v13.85zM8.087 10.069c-1.359 0-2.237-0.963-2.237-2.152 0-1.218 0.906-2.153 2.294-2.153s2.238 0.935 2.266 2.153c0 1.189-0.878 2.152-2.322 2.152zM25.987 25.619h-4.305v-7.676c0-1.784-0.623-3.002-2.181-3.002-1.19 0-1.897 0.821-2.209 1.614-0.113 0.283-0.142 0.68-0.142 1.077v7.987h-4.305v-9.432c0-1.728-0.057-3.172-0.113-4.418h3.739l0.198 1.926h0.085c0.566-0.907 1.954-2.238 4.277-2.238 2.832 0 4.956 1.898 4.956 5.976v8.186z"></path>
</svg>
