<!-- Generated by IcoMoon.io -->
<svg version="1.1" xmlns="http://www.w3.org/2000/svg" width="32" height="32" viewBox="0 0 32 32">
<path d="M29.938 28h-19.869c-1.104 0-2 0.895-2 2s0.896 2 2 2h19.869c1.105 0 2-0.895 2-2s-0.895-2-2-2zM2.958 28h-0.958c-1.105 0-2 0.895-2 2s0.895 2 2 2h0.958c1.104 0 2-0.895 2-2s-0.896-2-2-2zM10.069 4h19.869c1.105 0 2-0.895 2-2s-0.895-2-2-2h-19.869c-1.104 0-2 0.895-2 2s0.896 2 2 2zM2.958 0h-0.958c-1.105 0-2 0.895-2 2s0.895 2 2 2h0.958c1.104 0 2-0.895 2-2s-0.896-2-2-2zM29.938 9.333h-19.869c-1.104 0-2 0.895-2 2s0.896 2 2 2h19.869c1.105 0 2-0.895 2-2s-0.895-2-2-2zM2.958 9.333h-0.958c-1.105 0-2 0.895-2 2s0.895 2 2 2h0.958c1.104 0 2-0.895 2-2s-0.896-2-2-2zM29.938 18.667h-19.869c-1.104 0-2 0.895-2 2s0.896 2 2 2h19.869c1.105 0 2-0.895 2-2s-0.895-2-2-2zM2.958 18.667h-0.958c-1.105 0-2 0.895-2 2s0.895 2 2 2h0.958c1.104 0 2-0.895 2-2s-0.896-2-2-2z"></path>
</svg>
