<!-- Generated by IcoMoon.io -->
<svg version="1.1" xmlns="http://www.w3.org/2000/svg" width="32" height="32" viewBox="0 0 32 32">
<path d="M16 8.456c-2.26 0-4.42 0.633-6.302 1.837v-0.555c0-3.475 2.827-6.301 6.302-6.301 2.059 0 3.994 1.017 5.176 2.72 0.15 0.212 0.438 0.269 0.657 0.134l2.093-1.318c0.111-0.070 0.189-0.184 0.216-0.311 0.027-0.129 0.001-0.263-0.073-0.373-1.82-2.686-4.836-4.29-8.069-4.29-5.37 0-9.739 4.369-9.739 9.739v3.902c-1.331 1.958-2.032 4.231-2.032 6.587 0 6.492 5.281 11.773 11.772 11.773s11.772-5.28 11.772-11.773c0-6.491-5.281-11.771-11.772-11.771zM18.969 21.716h-5.938c-0.877 0-1.591-0.713-1.591-1.591s0.714-1.591 1.591-1.591h5.938c0.877 0 1.591 0.713 1.591 1.591s-0.714 1.591-1.591 1.591z"></path>
</svg>
