<!-- Generated by IcoMoon.io -->
<svg version="1.1" xmlns="http://www.w3.org/2000/svg" width="32" height="32" viewBox="0 0 32 32">
<path d="M25.732 9.733c0-5.367-4.366-9.733-9.732-9.733s-9.732 4.365-9.732 9.733v3.856c-1.345 1.966-2.055 4.254-2.055 6.623 0 6.5 5.288 11.788 11.787 11.788s11.787-5.288 11.787-11.788c0-2.371-0.71-4.657-2.055-6.621v-3.858zM17.589 23.092c0 0.877-0.713 1.589-1.589 1.589s-1.589-0.713-1.589-1.589v-5.934c0-0.877 0.713-1.589 1.589-1.589s1.589 0.713 1.589 1.589v5.934zM22.296 10.258c-1.883-1.201-4.041-1.831-6.296-1.831s-4.414 0.631-6.296 1.831v-0.525c0-3.472 2.825-6.297 6.296-6.297s6.296 2.826 6.296 6.297v0.525z"></path>
</svg>
