<!-- Generated by IcoMoon.io -->
<svg version="1.1" xmlns="http://www.w3.org/2000/svg" width="32" height="32" viewBox="0 0 32 32">
<path d="M31.393 20.176c0.395-1.356 0.615-2.787 0.606-4.272-0.003-0.531-0.034-1.055-0.090-1.571-0.019-0.178-0.058-0.349-0.083-0.525-0.048-0.335-0.093-0.671-0.162-0.999-0.044-0.206-0.107-0.405-0.16-0.608-0.074-0.288-0.142-0.579-0.232-0.861-0.068-0.213-0.155-0.417-0.232-0.626-0.097-0.262-0.188-0.527-0.298-0.782-0.090-0.208-0.197-0.406-0.296-0.609-0.119-0.245-0.234-0.493-0.366-0.73-0.111-0.2-0.238-0.39-0.358-0.584-0.14-0.226-0.275-0.456-0.426-0.674-0.132-0.191-0.277-0.371-0.418-0.555-0.159-0.208-0.314-0.419-0.482-0.619-0.15-0.177-0.312-0.344-0.47-0.514-0.177-0.191-0.351-0.384-0.537-0.565-0.168-0.163-0.346-0.315-0.521-0.471-0.193-0.171-0.384-0.345-0.585-0.506-0.184-0.147-0.377-0.284-0.568-0.422-0.208-0.152-0.415-0.305-0.631-0.446-0.198-0.129-0.404-0.247-0.608-0.367-0.223-0.131-0.445-0.263-0.674-0.383-0.211-0.11-0.428-0.209-0.644-0.309-0.236-0.109-0.472-0.218-0.714-0.316-0.223-0.090-0.45-0.168-0.678-0.247-0.247-0.086-0.495-0.171-0.748-0.245-0.233-0.068-0.47-0.124-0.707-0.181-0.258-0.062-0.516-0.121-0.779-0.169-0.242-0.044-0.488-0.079-0.734-0.112-0.266-0.036-0.534-0.068-0.804-0.090-0.25-0.020-0.502-0.030-0.755-0.038-0.388-0.012-0.775-0.026-1.169-0.009-7.838 0.348-14.198 6.723-14.53 14.563-0.128 3.013 0.621 5.842 2.011 8.255 0.314 0.546 0.318 1.216-0.013 1.752l-3.41 4.823c-0.318 0.45 0.004 1.072 0.555 1.072h15.831c7.007 0 13.017-4.661 14.881-11.060z"></path>
</svg>
