<!-- Generated by IcoMoon.io -->
<svg version="1.1" xmlns="http://www.w3.org/2000/svg" width="32" height="32" viewBox="0 0 32 32">
<path d="M29.545 28.647c-0.188-0.305-0.186-0.686-0.007-0.997 0.791-1.373 1.216-2.982 1.144-4.695-0.097-2.298-1.115-4.363-2.68-5.863-0.737 2.049-1.909 3.939-3.498 5.538-2.742 2.759-6.344 4.335-10.204 4.518 1.448 2.87 4.434 4.852 7.866 4.852h9.054c0.328 0 0.516-0.373 0.322-0.637l-1.996-2.716zM25.307 15.335c0.312-1.072 0.486-2.201 0.479-3.375-0.002-0.419-0.027-0.833-0.071-1.241-0.015-0.14-0.046-0.276-0.066-0.415-0.038-0.265-0.073-0.53-0.128-0.789-0.035-0.163-0.085-0.32-0.126-0.48-0.058-0.228-0.112-0.458-0.183-0.68-0.054-0.168-0.122-0.329-0.183-0.494-0.076-0.207-0.148-0.416-0.236-0.618-0.071-0.164-0.156-0.321-0.234-0.481-0.094-0.193-0.185-0.389-0.289-0.577-0.088-0.158-0.188-0.308-0.283-0.461-0.11-0.179-0.217-0.36-0.337-0.533-0.104-0.151-0.219-0.293-0.33-0.438-0.125-0.164-0.248-0.331-0.381-0.489-0.119-0.14-0.247-0.272-0.371-0.406-0.14-0.151-0.277-0.303-0.424-0.446-0.133-0.129-0.273-0.249-0.411-0.372-0.152-0.135-0.303-0.272-0.462-0.4-0.145-0.116-0.298-0.224-0.448-0.334-0.165-0.12-0.328-0.241-0.499-0.352-0.156-0.102-0.319-0.195-0.48-0.29-0.176-0.104-0.351-0.208-0.533-0.302-0.166-0.087-0.338-0.165-0.509-0.244-0.186-0.086-0.373-0.173-0.564-0.25-0.176-0.071-0.356-0.133-0.536-0.195-0.195-0.068-0.391-0.135-0.591-0.193-0.184-0.053-0.371-0.098-0.558-0.143-0.204-0.049-0.408-0.096-0.615-0.134-0.191-0.035-0.385-0.062-0.58-0.088-0.21-0.028-0.421-0.054-0.635-0.071-0.197-0.016-0.397-0.024-0.597-0.030-0.306-0.009-0.612-0.021-0.923-0.007-6.191 0.274-11.216 5.311-11.478 11.504-0.101 2.38 0.491 4.615 1.589 6.521 0.248 0.431 0.251 0.961-0.010 1.384l-2.847 4.026c-0.187 0.265 0.002 0.631 0.327 0.631h12.771c5.535 0 10.283-3.682 11.755-8.737z"></path>
</svg>
