<!-- Generated by IcoMoon.io -->
<svg version="1.1" xmlns="http://www.w3.org/2000/svg" width="32" height="32" viewBox="0 0 32 32">
<path d="M15.858 21.461h0.283c3.488 0 6.316-2.828 6.316-6.316v-8.83c0-3.488-2.828-6.316-6.316-6.316h-0.283c-3.488 0-6.316 2.828-6.316 6.316v8.83c0 3.488 2.828 6.316 6.316 6.316zM16 13.759c1.177 0 2.13 0.954 2.13 2.13s-0.954 2.13-2.13 2.13c-1.177 0-2.13-0.954-2.13-2.13s0.954-2.13 2.13-2.13zM27.45 15.278c0-0.956-0.774-1.73-1.73-1.73s-1.73 0.774-1.73 1.73c0 4.406-3.585 7.989-7.991 7.989s-7.99-3.583-7.99-7.989c0-0.956-0.774-1.73-1.73-1.73s-1.73 0.774-1.73 1.73c0 5.724 4.227 10.466 9.72 11.304v1.958h-1.977c-0.956 0-1.73 0.774-1.73 1.73s0.774 1.73 1.73 1.73h7.414c0.956 0 1.73-0.774 1.73-1.73s-0.774-1.73-1.73-1.73h-1.977v-1.958c5.494-0.838 9.721-5.58 9.721-11.304z"></path>
</svg>
