<!-- Generated by IcoMoon.io -->
<svg version="1.1" xmlns="http://www.w3.org/2000/svg" width="32" height="32" viewBox="0 0 32 32">
<path d="M31.642 14.991l-3.027-3.721c-0.197-0.242-0.318-0.535-0.35-0.845l-0.491-4.772c-0.078-0.754-0.673-1.349-1.427-1.427l-4.772-0.491c-0.31-0.032-0.604-0.154-0.845-0.35l-3.721-3.027c-0.588-0.478-1.43-0.478-2.018 0l-3.721 3.027c-0.242 0.196-0.535 0.318-0.845 0.35l-4.772 0.491c-0.753 0.078-1.349 0.673-1.427 1.427l-0.491 4.772c-0.032 0.31-0.154 0.604-0.35 0.845l-3.027 3.721c-0.478 0.588-0.478 1.43 0 2.018l3.027 3.721c0.197 0.242 0.318 0.535 0.35 0.845l0.491 4.772c0.077 0.754 0.673 1.349 1.427 1.427l4.772 0.491c0.31 0.032 0.604 0.154 0.845 0.35l3.721 3.027c0.588 0.478 1.43 0.478 2.018 0l3.721-3.027c0.242-0.197 0.535-0.318 0.845-0.35l4.772-0.491c0.753-0.078 1.349-0.673 1.427-1.427l0.491-4.772c0.032-0.31 0.154-0.603 0.35-0.845l3.027-3.721c0.478-0.588 0.478-1.43 0-2.018zM21.969 19.235c0 2.698-1.809 4.354-4.509 4.718v1.471c0 0.404-0.327 0.731-0.731 0.731h-1.301c-0.404 0-0.731-0.328-0.731-0.731v-1.521c-1.562-0.251-3.079-0.871-4.392-1.87-0.326-0.248-0.362-0.736-0.099-1.051l1.083-1.296c0.251-0.301 0.688-0.337 1.005-0.106 1.227 0.896 2.529 1.446 4.062 1.446 1.393 0 2.233-0.552 2.233-1.459v-0.045c0-0.862-0.531-1.303-3.117-1.967-3.115-0.795-5.127-1.657-5.127-4.729v-0.043c0-2.48 1.763-4.213 4.351-4.585v-1.621c0-0.404 0.327-0.731 0.731-0.731h1.301c0.404 0 0.731 0.327 0.731 0.731v1.7c1.284 0.223 2.446 0.685 3.467 1.38 0.33 0.224 0.397 0.691 0.171 1.019l-0.959 1.392c-0.223 0.324-0.661 0.398-0.996 0.192-1.166-0.715-2.313-1.135-3.428-1.135-1.303 0-1.988 0.596-1.988 1.348v0.043c0 1.017 0.662 1.348 3.338 2.033 3.136 0.819 4.905 1.945 4.905 4.641v0.045z"></path>
</svg>
