<!-- Generated by IcoMoon.io -->
<svg version="1.1" xmlns="http://www.w3.org/2000/svg" width="32" height="32" viewBox="0 0 32 32">
<path d="M26.564 16.911c-0.935 0.422-1.929 0.635-2.955 0.635h-15.218c-1.026 0-2.021-0.213-2.955-0.635-0.069-0.031-0.137-0.070-0.199-0.115l-5.237-3.71v12.918c0 1.326 1.074 2.4 2.4 2.4h27.2c1.326 0 2.4-1.074 2.4-2.4v-12.918l-5.237 3.71c-0.063 0.045-0.13 0.084-0.199 0.115zM29.6 6.205h-7.848l-0.952-1.586c-0.381-0.635-1.067-1.023-1.807-1.023h-5.988c-0.74 0-1.426 0.388-1.807 1.023l-0.952 1.586h-7.848c-1.326 0-2.4 1.075-2.4 2.4v1.541l6.524 4.622c0.593 0.25 1.221 0.379 1.867 0.379h15.218c0.646 0 1.274-0.129 1.867-0.379l6.524-4.622v-1.541c0-1.325-1.074-2.4-2.4-2.4z"></path>
</svg>
