<!-- Generated by IcoMoon.io -->
<svg version="1.1" xmlns="http://www.w3.org/2000/svg" width="32" height="32" viewBox="0 0 32 32">
<path d="M26.276 17.078c-1.032 0-1.871 0.839-1.871 1.871v8.826c0 0.267-0.218 0.483-0.485 0.483h-19.695c-0.267 0-0.483-0.216-0.483-0.483v-19.697c0-0.267 0.216-0.483 0.483-0.483h8.831c1.032 0 1.871-0.839 1.871-1.871s-0.839-1.871-1.871-1.871h-8.831c-2.33 0-4.225 1.896-4.225 4.225v19.697c0 2.33 1.896 4.225 4.225 4.225h19.695c2.331 0 4.227-1.896 4.227-4.225v-8.826c0-1.032-0.839-1.871-1.871-1.871zM28.835 0h-9.527c-1.038 0-1.881 0.843-1.881 1.881s0.843 1.881 1.881 1.881h6.267l-12.714 12.716c-0.356 0.354-0.553 0.828-0.553 1.333 0 0.504 0.197 0.977 0.551 1.33 0.356 0.356 0.828 0.551 1.33 0.551 0.5 0 0.973-0.195 1.331-0.551l12.716-12.716v6.373c0 1.038 0.845 1.881 1.883 1.881s1.881-0.843 1.881-1.881v-9.633c0-1.744-1.42-3.165-3.165-3.165z"></path>
</svg>
