<!-- Generated by IcoMoon.io -->
<svg version="1.1" xmlns="http://www.w3.org/2000/svg" width="32" height="32" viewBox="0 0 32 32">
<path d="M17.461 14.023c-0.227-0.25-0.506-0.447-0.836-0.591s-0.703-0.215-1.116-0.215h-1.351v5.464h1.351c0.406 0 0.772-0.068 1.095-0.205s0.599-0.327 0.826-0.57c0.226-0.244 0.401-0.531 0.525-0.861s0.188-0.692 0.195-1.086c0.007-0.374-0.050-0.727-0.17-1.061s-0.294-0.626-0.52-0.876zM9.843 13.608c-0.134-0.134-0.291-0.24-0.471-0.32s-0.374-0.12-0.581-0.12h-1.030v3.022h1.030c0.207 0 0.401-0.042 0.581-0.125s0.337-0.196 0.471-0.336c0.133-0.14 0.238-0.301 0.315-0.485s0.115-0.378 0.115-0.586c0-0.206-0.038-0.4-0.115-0.58s-0.182-0.337-0.315-0.471zM26.498 0h-20.997c-1.933 0-3.5 1.567-3.5 3.5v25c0 1.933 1.567 3.5 3.5 3.5h20.997c1.933 0 3.5-1.567 3.5-3.5v-25c0-1.933-1.567-3.5-3.5-3.5zM11.609 15.745c-0.144 0.33-0.34 0.617-0.587 0.861s-0.538 0.433-0.872 0.57c-0.335 0.137-0.689 0.205-1.064 0.205h-1.324v2.612h-1.551v-7.996h2.878c0.374 0 0.728 0.068 1.063 0.205s0.625 0.325 0.872 0.565c0.247 0.24 0.442 0.524 0.586 0.851s0.216 0.68 0.216 1.060c0 0.38-0.072 0.735-0.216 1.066zM19.442 17.556c-0.187 0.484-0.447 0.907-0.781 1.271s-0.732 0.651-1.196 0.861c-0.464 0.21-0.969 0.315-1.516 0.315h-3.343v-8.006h3.343c0.547 0 1.052 0.107 1.516 0.32s0.863 0.5 1.196 0.861c0.334 0.36 0.594 0.783 0.781 1.271s0.28 1.004 0.28 1.552c0 0.554-0.094 1.073-0.28 1.556zM25.79 13.328h-3.763v1.862h3.713v1.261h-3.713v3.543h-1.521v-7.996h5.284v1.331z"></path>
</svg>
