<!-- Generated by IcoMoon.io -->
<svg version="1.1" xmlns="http://www.w3.org/2000/svg" width="32" height="32" viewBox="0 0 32 32">
<path d="M29.616 25.444l-5.861-5.227c-0.521-0.465-1.335-0.423-1.841 0.093l-2.348 2.398c-0.436 0.445-1.117 0.55-1.637 0.244-2.839-1.67-4.569-3.789-4.997-4.348l0.004-0.003s-0.024-0.028-0.057-0.067c-0.031-0.042-0.053-0.071-0.053-0.071l-0.004 0.003c-0.447-0.545-2.115-2.713-3.093-5.858-0.179-0.576 0.079-1.215 0.611-1.538l2.871-1.739c0.619-0.375 0.844-1.157 0.511-1.771l-3.751-6.9c-0.308-0.567-0.994-0.808-1.615-0.568-1.842 0.713-5.425 2.375-6.087 4.726-0.894 3.172-0.043 10.674 5.451 17.691l-0.004 0.003c0.019 0.024 0.038 0.044 0.057 0.068s0.034 0.047 0.053 0.071l0.004-0.003c5.577 6.95 12.687 9.492 15.98 9.345 2.441-0.108 4.877-3.217 5.991-4.848 0.376-0.55 0.298-1.273-0.184-1.702z"></path>
</svg>
