<!-- Generated by IcoMoon.io -->
<svg version="1.1" xmlns="http://www.w3.org/2000/svg" width="32" height="32" viewBox="0 0 32 32">
<path d="M22.738 14.787l-10.147-13.939c-0.324-0.443-0.801-0.737-1.345-0.822-0.542-0.087-1.087 0.045-1.534 0.371-0.917 0.667-1.119 1.956-0.453 2.877l9.267 12.727-9.267 12.729c-0.667 0.92-0.462 2.21 0.455 2.877 0.364 0.265 0.788 0.394 1.208 0.394 0.638 0 1.267-0.295 1.668-0.847l10.147-13.943c0.259-0.356 0.396-0.775 0.396-1.21 0-0.437-0.136-0.856-0.396-1.214z"></path>
</svg>
