<!-- Generated by IcoMoon.io -->
<svg version="1.1" xmlns="http://www.w3.org/2000/svg" width="32" height="32" viewBox="0 0 32 32">
<path d="M9.25 4.503h8.52c0.551 0 1-0.449 1-1v-3.503h-10.52v3.503c0 0.551 0.449 1 1 1zM30.149 6.149l-4.298-4.298c-1.185-1.185-2.792-1.851-4.468-1.851h-0.613v3.503c0 1.654-1.346 3-3 3h-8.52c-1.654 0-3-1.346-3-3v-3.503h-2.558c-2.039 0-3.692 1.653-3.692 3.692v24.615c0 2.039 1.653 3.692 3.692 3.692h24.615c2.039 0 3.692-1.653 3.692-3.692v-17.69c0-1.676-0.666-3.283-1.851-4.468zM25.75 23.875c0 1.241-1.009 2.25-2.25 2.25h-15c-1.241 0-2.25-1.009-2.25-2.25v-5.5c0-1.241 1.009-2.25 2.25-2.25h15c1.241 0 2.25 1.009 2.25 2.25v5.5z"></path>
</svg>
