<!-- Generated by IcoMoon.io -->
<svg version="1.1" xmlns="http://www.w3.org/2000/svg" width="32" height="32" viewBox="0 0 32 32">
<path d="M31.62 28.92c-0.001 0-0.001-0.001-0.001-0.001l-5.755-5.785c4.316-5.656 3.811-13.856-1.254-18.92-2.716-2.717-6.334-4.214-10.188-4.214s-7.472 1.496-10.19 4.214c-2.717 2.717-4.214 6.336-4.214 10.189 0 3.854 1.497 7.472 4.214 10.189 2.718 2.718 6.337 4.215 10.189 4.215 3.152 0 6.228-1.045 8.727-2.954l5.738 5.768c0.238 0.245 0.556 0.38 0.896 0.38 0.336 0 0.651-0.131 0.883-0.367l0.949-0.949c0.485-0.485 0.488-1.276 0.005-1.764zM21.894 21.875c-4.119 4.117-10.822 4.12-14.943 0-1.992-1.992-3.089-4.646-3.089-7.471 0-2.826 1.097-5.48 3.089-7.471 1.991-1.991 4.644-3.089 7.471-3.089 2.826 0 5.48 1.098 7.472 3.089 4.118 4.119 4.118 10.823 0 14.943z"></path>
</svg>
