<!-- Generated by IcoMoon.io -->
<svg version="1.1" xmlns="http://www.w3.org/2000/svg" width="32" height="32" viewBox="0 0 32 32">
<path d="M14.13 0.501l-10.617 6.13c-1.157 0.668-1.87 1.903-1.87 3.239v12.26c0 1.336 0.713 2.571 1.87 3.239l10.617 6.13c1.157 0.668 2.583 0.668 3.74 0l10.617-6.13c1.157-0.668 1.87-1.903 1.87-3.239v-12.26c0-1.336-0.713-2.571-1.87-3.239l-10.617-6.13c-1.157-0.668-2.583-0.668-3.74 0zM16 25.796c-5.41 0-9.796-4.386-9.796-9.796s4.386-9.796 9.796-9.796 9.796 4.386 9.796 9.796-4.386 9.796-9.796 9.796z"></path>
</svg>
