<!-- Generated by IcoMoon.io -->
<svg version="1.1" xmlns="http://www.w3.org/2000/svg" width="32" height="32" viewBox="0 0 32 32">
<path d="M27.741 21.457c-0.314-0.436-0.778-0.719-1.292-0.797-0.519-0.090-1.052 0.033-1.496 0.355l-8.954 6.518-8.955-6.518c-0.436-0.316-0.963-0.436-1.484-0.359-0.525 0.084-0.988 0.367-1.304 0.799-0.646 0.889-0.449 2.141 0.439 2.789l10.127 7.369c0.344 0.254 0.751 0.387 1.177 0.387s0.833-0.133 1.177-0.383l10.129-7.373c0.432-0.316 0.714-0.779 0.796-1.305s-0.045-1.053-0.359-1.482zM5.551 11.333c0.111 0.020 0.224 0.029 0.335 0.029 0.408 0 0.812-0.131 1.161-0.385l8.954-6.518 8.955 6.518c0.437 0.314 0.964 0.439 1.484 0.359 0.525-0.084 0.988-0.367 1.304-0.799 0.645-0.889 0.449-2.141-0.439-2.789l-10.127-7.369c-0.688-0.508-1.666-0.504-2.354-0.004l-10.129 7.373c-0.432 0.316-0.714 0.779-0.796 1.305s0.045 1.053 0.359 1.482c0.314 0.436 0.778 0.719 1.292 0.797z"></path>
</svg>
