<!-- Generated by IcoMoon.io -->
<svg version="1.1" xmlns="http://www.w3.org/2000/svg" width="32" height="32" viewBox="0 0 32 32">
<path d="M31.922 12.273c-0.205-0.631-0.792-1.059-1.455-1.062h-9.937l-3.068-9.448c-0.206-0.633-0.796-1.062-1.462-1.062-0.666 0.001-1.256 0.429-1.462 1.062l-3.068 9.448h-9.937c-0.663 0.003-1.25 0.431-1.455 1.062-0.207 0.633 0.019 1.327 0.559 1.717l8.039 5.842-3.071 9.457c-0.206 0.633 0.020 1.326 0.559 1.717 0.538 0.393 1.269 0.393 1.807 0l8.039-5.84 8.039 5.84c0.263 0.19 0.58 0.292 0.905 0.291 0.324 0.001 0.64-0.101 0.902-0.291 0.539-0.391 0.764-1.084 0.559-1.717l-3.071-9.457 8.039-5.842c0.534-0.394 0.754-1.087 0.544-1.717z"></path>
</svg>
