<!-- Generated by IcoMoon.io -->
<svg version="1.1" xmlns="http://www.w3.org/2000/svg" width="32" height="32" viewBox="0 0 32 32">
<path d="M16 0c-8.837 0-16 7.163-16 16s7.163 16 16 16 16-7.163 16-16c0-8.837-7.163-16-16-16zM24.033 10.941l-8.293 11.733c-0.218 0.349-0.622 0.601-1.068 0.651l-0.15 0.008c-0.417 0-0.789-0.153-1.069-0.433l-5.24-4.681c-0.308-0.305-0.469-0.683-0.469-1.082-0.001-0.395 0.152-0.769 0.433-1.051 0.563-0.564 1.545-0.559 2.103-0.003l3.958 3.484 7.296-10.239c0.41-0.661 1.321-0.867 2.019-0.436l0.001 0.001c0.696 0.433 0.91 1.351 0.478 2.047z"></path>
</svg>
