<!-- Generated by IcoMoon.io -->
<svg version="1.1" xmlns="http://www.w3.org/2000/svg" width="32" height="32" viewBox="0 0 32 32">
<path d="M31.353 15.354h-6.465c-0.162-1.939-0.97-3.879-2.101-5.172l4.525-4.525c0.323-0.323 0.323-0.646 0-0.97s-0.646-0.323-0.97 0l-4.525 4.525c-1.455-1.293-3.232-2.101-5.172-2.101v-6.465c0-0.323-0.323-0.646-0.646-0.646s-0.646 0.323-0.646 0.646v6.465c-1.939 0.162-3.879 0.97-5.172 2.101l-4.525-4.525c-0.323-0.323-0.646-0.323-0.97 0s-0.323 0.646 0 0.97l4.525 4.525c-1.293 1.455-2.101 3.232-2.101 5.172h-6.465c-0.323 0-0.646 0.323-0.646 0.646s0.323 0.646 0.646 0.646h6.465c0.162 1.939 0.97 3.879 2.101 5.172l-4.525 4.525c-0.323 0.323-0.323 0.646 0 0.97 0.162 0.162 0.323 0.162 0.485 0.162s0.323 0 0.485-0.162l4.525-4.525c1.455 1.293 3.232 2.101 5.172 2.101v6.465c0 0.323 0.323 0.646 0.646 0.646s0.646-0.323 0.646-0.646v-6.465c1.939-0.162 3.879-0.97 5.172-2.101l4.525 4.525c0.162 0.162 0.323 0.162 0.485 0.162s0.323 0 0.485-0.162c0.323-0.323 0.323-0.646 0-0.97l-4.525-4.525c1.293-1.455 2.101-3.232 2.101-5.172h6.465c0.323 0 0.646-0.323 0.646-0.646s-0.324-0.646-0.647-0.646z"></path>
</svg>
