<!-- Generated by IcoMoon.io -->
<svg version="1.1" xmlns="http://www.w3.org/2000/svg" width="32" height="32" viewBox="0 0 32 32">
<path d="M16 11.997c-2.211 0-4.003 1.792-4.003 4.003s1.792 4.003 4.003 4.003c2.211 0 4.003-1.792 4.003-4.003s-1.792-4.003-4.003-4.003zM6.894 16c0 1.043 0.845 1.888 1.888 1.888s1.888-0.845 1.888-1.888c0-1.043-0.845-1.888-1.888-1.888s-1.888 0.845-1.888 1.888zM4.686 26.135c-0.326 0.326-0.326 0.853 0 1.179s0.853 0.325 1.179 0c0.326-0.326 0.326-0.853 0-1.179s-0.853-0.326-1.179 0zM9.561 12.231c0.737 0.737 1.933 0.737 2.67 0s0.737-1.933 0-2.67c-0.737-0.737-1.933-0.737-2.67 0s-0.737 1.933 0 2.67zM5.59 16c0-0.723-0.586-1.31-1.31-1.31s-1.31 0.586-1.31 1.31c0 0.723 0.586 1.31 1.31 1.31s1.31-0.586 1.31-1.31zM0.834 15.166c-0.46 0-0.834 0.373-0.834 0.834s0.373 0.834 0.834 0.834c0.46 0 0.834-0.373 0.834-0.834s-0.373-0.834-0.834-0.834zM8.639 8.639c0.512-0.512 0.512-1.341 0-1.852s-1.341-0.512-1.852 0c-0.512 0.512-0.512 1.341 0 1.852s1.341 0.512 1.852 0zM22.439 12.231c0.737-0.737 0.737-1.933 0-2.67s-1.933-0.737-2.67 0-0.737 1.933 0 2.67c0.737 0.737 1.933 0.737 2.67 0zM27.314 5.865c0.325-0.326 0.325-0.853 0-1.179s-0.853-0.326-1.179 0-0.326 0.853 0 1.179 0.853 0.326 1.179 0zM21.33 16c0 1.043 0.845 1.888 1.888 1.888s1.888-0.845 1.888-1.888c0-1.043-0.845-1.888-1.888-1.888s-1.888 0.845-1.888 1.888zM16 5.59c0.723 0 1.31-0.586 1.31-1.31s-0.586-1.31-1.31-1.31c-0.723 0-1.31 0.586-1.31 1.31s0.586 1.31 1.31 1.31zM16 10.67c1.043 0 1.888-0.845 1.888-1.888s-0.845-1.888-1.888-1.888c-1.043 0-1.888 0.845-1.888 1.888s0.845 1.888 1.888 1.888zM16 1.667c0.46 0 0.834-0.373 0.834-0.834s-0.373-0.834-0.834-0.834c-0.46 0-0.834 0.373-0.834 0.834s0.373 0.834 0.834 0.834zM16 21.33c-1.043 0-1.888 0.845-1.888 1.888s0.845 1.888 1.888 1.888c1.043 0 1.888-0.845 1.888-1.888s-0.845-1.888-1.888-1.888zM23.361 6.787c-0.511 0.512-0.511 1.341 0 1.852s1.341 0.512 1.852 0c0.512-0.512 0.512-1.341 0-1.852s-1.341-0.512-1.852 0zM26.135 26.135c-0.326 0.326-0.326 0.853 0 1.179s0.853 0.325 1.179 0c0.325-0.326 0.325-0.853 0-1.179s-0.853-0.326-1.179 0zM23.361 23.361c-0.511 0.512-0.511 1.341 0 1.852s1.341 0.512 1.852 0c0.512-0.511 0.512-1.341 0-1.852s-1.341-0.511-1.852 0zM27.719 14.69c-0.723 0-1.31 0.586-1.31 1.31s0.586 1.31 1.31 1.31 1.31-0.586 1.31-1.31c0-0.723-0.586-1.31-1.31-1.31zM31.166 15.166c-0.46 0-0.834 0.373-0.834 0.834s0.373 0.834 0.834 0.834c0.46 0 0.834-0.373 0.834-0.834s-0.373-0.834-0.834-0.834zM16 30.333c-0.46 0-0.834 0.373-0.834 0.834s0.373 0.834 0.834 0.834c0.46 0 0.834-0.373 0.834-0.834s-0.373-0.834-0.834-0.834zM6.787 23.361c-0.512 0.512-0.512 1.341 0 1.852s1.341 0.512 1.852 0c0.512-0.511 0.512-1.341 0-1.852s-1.341-0.511-1.852 0zM9.561 19.769c-0.737 0.737-0.737 1.933 0 2.67s1.933 0.737 2.67 0c0.737-0.737 0.737-1.933 0-2.67s-1.933-0.737-2.67 0zM4.686 4.686c-0.326 0.326-0.326 0.853 0 1.179s0.853 0.326 1.179 0 0.326-0.853 0-1.179c-0.326-0.326-0.853-0.326-1.179 0zM22.439 19.769c-0.737-0.737-1.933-0.737-2.67 0s-0.737 1.933 0 2.67c0.737 0.737 1.933 0.737 2.67 0s0.737-1.933 0-2.67zM16 26.41c-0.723 0-1.31 0.586-1.31 1.31s0.586 1.31 1.31 1.31c0.723 0 1.31-0.586 1.31-1.31s-0.586-1.31-1.31-1.31z"></path>
</svg>
