<!-- Generated by IcoMoon.io -->
<svg version="1.1" xmlns="http://www.w3.org/2000/svg" width="32" height="32" viewBox="0 0 32 32">
<path d="M28.886 10.685c-0.236-0.276-0.58-0.435-0.943-0.435h-23.766c-0.366 0-0.712 0.161-0.948 0.441-0.235 0.279-0.335 0.648-0.274 1.008l3.961 19.27c0.102 0.595 0.618 1.030 1.222 1.030h16.127c0.61 0 1.129-0.443 1.224-1.045l3.678-19.27c0.057-0.358-0.046-0.724-0.281-1zM3.414 6.771h25.172c0.887 0 1.295-1.27 0.621-1.933l-4.648-4.574c-0.173-0.17-0.393-0.264-0.621-0.264h-16.065c-0.235 0-0.461 0.099-0.636 0.279l-4.459 4.574c-0.655 0.672-0.242 1.919 0.636 1.919z"></path>
</svg>
