<!-- Generated by IcoMoon.io -->
<svg version="1.1" xmlns="http://www.w3.org/2000/svg" width="32" height="32" viewBox="0 0 32 32">
<path d="M22.994 16.932c3.617 0 6.56-2.943 6.56-6.56s-2.943-6.56-6.56-6.56c-3.617 0-6.56 2.943-6.56 6.56s2.943 6.56 6.56 6.56zM30.228 17.708c-0.086-0.44-0.401-0.802-0.826-0.946-0.419-0.142-0.895-0.051-1.231 0.247-0.854 0.755-1.816 1.303-2.86 1.626-1.507 0.469-3.159 0.469-4.666 0-1.082-0.335-2.099-0.919-2.893-1.638-0.032-0.039-0.144-0.166-0.18-0.203-0.329-0.32-0.809-0.43-1.248-0.301-0.44 0.137-0.769 0.503-0.857 0.956l-1.8 9.247c-0.072 0.367 0.024 0.748 0.263 1.037 0.237 0.288 0.592 0.455 0.966 0.455h15.853c0.374 0 0.728-0.166 0.965-0.455 0.238-0.289 0.335-0.67 0.263-1.037l-1.749-8.988zM13.702 17.412c-0.071-0.363-0.331-0.662-0.683-0.782-0.346-0.117-0.739-0.042-1.017 0.204-0.706 0.624-1.501 1.077-2.363 1.343-1.245 0.388-2.61 0.388-3.855 0-0.894-0.277-1.734-0.759-2.39-1.353-0.026-0.032-0.119-0.137-0.148-0.167-0.272-0.265-0.668-0.356-1.031-0.249-0.364 0.113-0.635 0.416-0.708 0.79l-1.488 7.64c-0.059 0.303 0.020 0.618 0.217 0.856s0.489 0.376 0.798 0.376h11.171l1.591-8.173-0.094-0.485zM7.726 16.77c2.989 0 5.42-2.431 5.42-5.42s-2.431-5.42-5.42-5.42-5.42 2.431-5.42 5.42 2.431 5.42 5.42 5.42z"></path>
</svg>
