<!-- Generated by IcoMoon.io -->
<svg version="1.1" xmlns="http://www.w3.org/2000/svg" width="32" height="32" viewBox="0 0 32 32">
<path d="M16.15 7c-3.144 0-5.702 2.558-5.702 5.702s2.558 5.702 5.702 5.702c3.144 0 5.702-2.558 5.702-5.702s-2.558-5.702-5.702-5.702zM16 0c-8.837 0-16 7.163-16 16s7.163 16 16 16 16-7.163 16-16-7.163-16-16-16zM26.807 24.705l-4.581-6.086-0.005 0.016c-0.129-0.169-0.293-0.308-0.501-0.379-0.364-0.123-0.778-0.045-1.070 0.215-0.743 0.656-1.579 1.132-2.486 1.413-1.31 0.408-2.746 0.408-4.056 0-0.94-0.291-1.824-0.799-2.515-1.424-0.028-0.034-0.126-0.144-0.156-0.176-0.286-0.278-0.703-0.374-1.085-0.261-0.227 0.070-0.399 0.224-0.535 0.408l-0.009-0.027-4.681 6.218c-1.889-2.373-3.039-5.359-3.039-8.622 0-7.671 6.241-13.912 13.912-13.912s13.912 6.241 13.912 13.912c0 3.301-1.176 6.319-3.105 8.705z"></path>
</svg>
