<!-- Generated by IcoMoon.io -->
<svg version="1.1" xmlns="http://www.w3.org/2000/svg" width="32" height="32" viewBox="0 0 32 32">
<path d="M21.793 13.618c-0.134-0.134-0.291-0.24-0.471-0.32s-0.374-0.12-0.581-0.12h-1.030v3.022h1.030c0.207 0 0.401-0.042 0.581-0.125s0.337-0.196 0.471-0.336c0.133-0.14 0.238-0.301 0.315-0.485s0.115-0.378 0.115-0.586c0-0.206-0.038-0.4-0.115-0.58s-0.182-0.337-0.315-0.471zM26.498 0h-20.997c-1.933 0-3.5 1.567-3.5 3.5v25c0 1.933 1.567 3.5 3.5 3.5h20.997c1.933 0 3.5-1.567 3.5-3.5v-25c0-1.933-1.567-3.5-3.5-3.5zM14.741 18.472v1.531h-6.515l3.963-6.626-3.813 0.011v-1.391h6.395l-3.874 6.475h3.844zM17.241 20.003h-1.552v-7.996h1.552v7.996zM23.558 15.755c-0.144 0.33-0.34 0.617-0.587 0.861s-0.538 0.433-0.872 0.57c-0.335 0.137-0.689 0.205-1.064 0.205h-1.324v2.612h-1.552v-7.996h2.877c0.374 0 0.728 0.068 1.063 0.205s0.625 0.325 0.872 0.565c0.247 0.24 0.442 0.524 0.586 0.851s0.216 0.68 0.216 1.060-0.072 0.735-0.216 1.066z"></path>
</svg>
